<svg xmlns="http://www.w3.org/2000/svg" viewBox="0 0 64 64" width="64" height="64">
  <!-- Circular Badge Background -->
  <circle cx="32" cy="32" r="30" fill="#f0f9ff" stroke="#0284c7" stroke-width="2"/>
  
  <!-- Ocean Waves at bottom -->
  <path d="M 10 52 Q 18 49 26 52 Q 34 55 42 52 Q 50 49 54 52 L 54 56 L 10 56 Z" fill="#38bdf8"/>
  
  <!-- Base -->
  <rect x="14" y="47" width="36" height="4" fill="#334155"/>
  
  <!-- Main Arch Facade -->
  <rect x="17" y="25" width="30" height="22" fill="#e2e8f0" stroke="#64748b" stroke-width="1"/>
  
  <!-- Center Arch -->
  <path d="M 25 47 L 25 34 Q 32 27 39 34 L 39 47 Z" fill="#0f172a"/>
  
  <!-- Left Side Small Arch -->
  <path d="M 19 47 L 19 39 Q 21.5 35 24 39 L 24 47 Z" fill="#334155"/>
  <!-- Right Side Small Arch -->
  <path d="M 40 47 L 40 39 Q 42.5 35 45 39 L 45 47 Z" fill="#334155"/>
  
  <!-- Central Great Dome -->
  <path d="M 25 25 Q 32 15 39 25 Z" fill="#f59e0b"/>
  
  <!-- 4 Corner Turrets / Minarets -->
  <rect x="15.5" y="19" width="3" height="8" fill="#cbd5e1"/>
  <path d="M 15 19 Q 17 15 19 19 Z" fill="#f59e0b"/>
  
  <rect x="45.5" y="19" width="3" height="8" fill="#cbd5e1"/>
  <path d="M 45 19 Q 47 15 49 19 Z" fill="#f59e0b"/>
</svg>
